<svg width="33" height="33" viewBox="0 0 33 33" fill="none" xmlns="http://www.w3.org/2000/svg">
<path d="M32.1373 16.7183C32.1322 20.6339 30.6956 24.4126 28.0979 27.3425C25.5003 30.2724 21.9209 32.1513 18.0341 32.6254C17.9475 32.6352 17.8599 32.6265 17.7769 32.6C17.694 32.5734 17.6176 32.5296 17.5528 32.4714C17.488 32.4131 17.4363 32.3418 17.4011 32.2622C17.3659 32.1825 17.348 32.0963 17.3485 32.0092V20.4154H21.0457C21.2147 20.4158 21.3819 20.3814 21.537 20.3145C21.6921 20.2475 21.8318 20.1493 21.9473 20.0261C22.0629 19.9029 22.1519 19.7572 22.2088 19.5981C22.2657 19.4391 22.2893 19.27 22.2781 19.1014C22.2509 18.7845 22.1047 18.4896 21.8689 18.2762C21.6331 18.0627 21.3253 17.9464 21.0072 17.9507H17.3485V14.2535C17.3485 13.5998 17.6082 12.9728 18.0705 12.5106C18.5327 12.0484 19.1596 11.7887 19.8133 11.7887H22.2781C22.4471 11.7891 22.6143 11.7547 22.7694 11.6877C22.9245 11.6207 23.0642 11.5226 23.1797 11.3993C23.2953 11.2761 23.3843 11.1304 23.4412 10.9714C23.4981 10.8123 23.5217 10.6432 23.5105 10.4746C23.4833 10.1572 23.3366 9.8619 23.1002 9.64833C22.8637 9.43477 22.5551 9.31882 22.2365 9.32389H19.8133C18.5059 9.32389 17.2521 9.84326 16.3276 10.7677C15.4031 11.6922 14.8838 12.9461 14.8838 14.2535V17.9507H11.1866C11.0176 17.9503 10.8504 17.9847 10.6953 18.0516C10.5402 18.1186 10.4005 18.2168 10.285 18.34C10.1694 18.4632 10.0804 18.6089 10.0235 18.768C9.96657 18.927 9.94298 19.0961 9.95418 19.2647C9.98144 19.5821 10.1281 19.8774 10.3645 20.091C10.601 20.3046 10.9096 20.4205 11.2282 20.4154H14.8838V32.0123C14.8843 32.0992 14.8664 32.1853 14.8313 32.2649C14.7962 32.3444 14.7446 32.4156 14.68 32.4738C14.6154 32.532 14.5392 32.5759 14.4564 32.6025C14.3737 32.6292 14.2862 32.638 14.1998 32.6285C10.2089 32.1425 6.54593 30.1758 3.93589 27.1179C1.32585 24.06 -0.0410274 20.1336 0.105806 16.1159C0.413905 7.79726 7.15202 1.0345 15.4768 0.710995C17.6321 0.627509 19.7821 0.979581 21.7982 1.74615C23.8143 2.51272 25.6551 3.67804 27.2104 5.17241C28.7657 6.66678 30.0037 8.45949 30.8503 10.4433C31.6968 12.4272 32.1345 14.5614 32.1373 16.7183Z" fill="#1D00D2"/>
</svg>
