<svg width="40" height="41" viewBox="0 0 40 41" fill="none" xmlns="http://www.w3.org/2000/svg">
<g clip-path="url(#clip0_4_77)">
<path d="M33.5184 34.6493C33.4123 34.8426 33.2563 35.0039 33.0666 35.1163C32.8769 35.2288 32.6606 35.2883 32.4401 35.2886H25.0457C24.8383 35.2886 24.6343 35.2362 24.4525 35.1363C24.2707 35.0364 24.1171 34.8922 24.0059 34.7171L17.7684 24.915L8.70417 34.885C8.48321 35.1224 8.17759 35.2631 7.85358 35.2766C7.52957 35.2902 7.21328 35.1755 6.97329 34.9574C6.7333 34.7393 6.58894 34.4353 6.57152 34.1115C6.5541 33.7877 6.66502 33.4701 6.88023 33.2275L16.3959 22.7521L6.75237 7.60599C6.6336 7.41965 6.56711 7.20482 6.55987 6.98397C6.55262 6.76312 6.60489 6.54439 6.7112 6.35067C6.81751 6.15696 6.97394 5.99539 7.16412 5.88288C7.3543 5.77038 7.57123 5.71107 7.7922 5.71118H15.1866C15.394 5.71125 15.598 5.76366 15.7798 5.86356C15.9616 5.96347 16.1152 6.10763 16.2264 6.2827L22.4639 16.0849L31.5281 6.11479C31.7491 5.87743 32.0547 5.73673 32.3787 5.72319C32.7027 5.70965 33.019 5.82437 33.259 6.04247C33.499 6.26058 33.6433 6.56448 33.6608 6.88831C33.6782 7.21213 33.5673 7.52977 33.3521 7.77236L23.8364 18.24L33.4799 33.3954C33.598 33.5818 33.6639 33.7965 33.6707 34.0171C33.6775 34.2377 33.6249 34.456 33.5184 34.6493Z" fill="#1D00D2"/>
</g>
<defs>
<clipPath id="clip0_4_77">
<rect width="39.4366" height="39.4366" fill="white" transform="translate(0.397827 0.781738)"/>
</clipPath>
</defs>
</svg>
