<svg width="40" height="40" viewBox="0 0 40 40" fill="none" xmlns="http://www.w3.org/2000/svg">
<g clip-path="url(#clip0_4_80)">
<path d="M36.4963 11.2729C36.3511 10.705 36.073 10.1797 35.6849 9.74045C35.2968 9.30118 34.8098 8.96048 34.2641 8.74647C28.9833 6.70686 20.5783 6.72535 20.1162 6.72535C19.654 6.72535 11.2491 6.70686 5.9683 8.74647C5.42261 8.96048 4.93561 9.30118 4.5475 9.74045C4.15939 10.1797 3.88128 10.705 3.73613 11.2729C3.33714 12.8103 2.86267 15.6202 2.86267 20.2817C2.86267 24.9432 3.33714 27.7531 3.73613 29.2905C3.88107 29.8587 4.15907 30.3842 4.5472 30.8238C4.93532 31.2633 5.42243 31.6043 5.9683 31.8184C11.0273 33.7702 18.9454 33.838 20.0145 33.838H20.2179C21.287 33.838 29.2097 33.7702 34.2641 31.8184C34.81 31.6043 35.2971 31.2633 35.6852 30.8238C36.0733 30.3842 36.3513 29.8587 36.4963 29.2905C36.8952 27.75 37.3697 24.9432 37.3697 20.2817C37.3697 15.6202 36.8952 12.8103 36.4963 11.2729ZM25.1367 21.2861L18.9747 25.5995C18.7904 25.7286 18.5742 25.8048 18.3496 25.8198C18.1251 25.8347 17.9007 25.788 17.7009 25.6845C17.501 25.581 17.3333 25.4247 17.216 25.2327C17.0986 25.0406 17.0361 24.8201 17.0352 24.5951V15.9683C17.0353 15.7429 17.0972 15.5217 17.2142 15.329C17.3312 15.1363 17.4988 14.9794 17.6988 14.8754C17.8988 14.7713 18.1235 14.7241 18.3485 14.7389C18.5734 14.7537 18.79 14.8299 18.9747 14.9593L25.1367 19.2727C25.2987 19.3863 25.4311 19.5374 25.5224 19.713C25.6138 19.8886 25.6615 20.0837 25.6615 20.2817C25.6615 20.4797 25.6138 20.6747 25.5224 20.8504C25.4311 21.026 25.2987 21.177 25.1367 21.2907V21.2861Z" fill="#1D00D2"/>
</g>
<defs>
<clipPath id="clip0_4_80">
<rect width="39.4366" height="39.4366" fill="white" transform="translate(0.397827 0.563477)"/>
</clipPath>
</defs>
</svg>
